<?xml version="1.0" encoding="utf-8"?>
<!-- Generator: Adobe Illustrator 26.2.1, SVG Export Plug-In . SVG Version: 6.00 Build 0)  -->
<svg version="1.1" id="Camada_1" xmlns="http://www.w3.org/2000/svg" xmlns:xlink="http://www.w3.org/1999/xlink" x="0px" y="0px"
	 viewBox="0 0 253.28 311.202" style="enable-background:new 0 0 253.28 311.202;" xml:space="preserve">
<style type="text/css">
	.st0{fill:#F2F2F2;}
</style>
<g>
	<g>
		<g>
			<path class="st0" d="M57.599,36.168C46.952,54.593,40.524,74.302,35.575,94.876c4.739-0.986,7.147-1.494,11.968-2.636
				c-1.043,6.853-1.469,10.359-2.107,17.494c-13.91,2.163-19.749,3.21-33.014-1.646c6.794-23.357,16.699-44.322,33.711-62.08
				C50.488,41.84,52.792,39.86,57.599,36.168z"/>
			<path class="st0" d="M99.581,15.307c-1.716,17.08-2.25,34.222-2.525,51.376c-0.044,6.407-0.188,11.064-0.559,13.753
				c-0.37,2.691-1.523,5.463-3.474,8.539c-1.952,3.076-4.564,5.715-7.669,8.058s-6.512,4.596-10.682,6.36
				c-4.615,1.953-8.811,2.416-12.382,1.677c-3.572-0.738-6.167-2.407-7.713-4.795c-1.547-2.387-2.265-5.081-2.194-8.06
				s0.741-9.38,2.56-18.671c3.388-15.33,7.544-29.86,13.056-44.559c5.138-3.176,7.806-4.608,13.289-7.13
				c-4.957,19.327-7.487,38.951-9.228,58.789c-0.275,3.789-0.23,6.192,0.069,7.127c0.298,0.936,0.997,1.198,2.077,0.758
				c1.234-0.503,2.044-1.437,2.444-2.763c0.399-1.326,0.68-4.179,0.932-8.46c1.448-19.339,3.82-38.196,7.679-57.194
				C90.833,17.787,93.7,16.804,99.581,15.307z"/>
			<path class="st0" d="M142.323,55.801c-6.515-0.536-9.709-1.569-16.185-3.432c-0.101-6.798-0.147-10.13-0.232-16.639
				c-0.062-4.73-0.267-7.624-0.62-8.8c-0.353-1.176-1.105-1.81-2.256-1.909c-1.302-0.112-2.121,0.496-2.464,1.797
				c-0.343,1.303-0.505,4.148-0.469,8.686c0.143,14.706,0.365,29.407,0.656,44.11c0.105,4.854,0.364,8.179,0.759,9.902
				c0.395,1.722,1.219,2.976,2.463,3.718c1.193,0.711,1.954,0.38,2.291-0.983c0.336-1.362,0.45-4.966,0.348-10.672
				c-0.093-5.225-0.137-7.808-0.221-12.905c6.482,2.562,9.659,3.9,16.253,4.348c0.026,1.667,0.039,2.504,0.063,4.184
				c0.159,11.157-0.252,19.351-1.141,24.098c-0.89,4.748-2.901,8.83-5.913,11.265c-3.013,2.434-6.635,1.941-11.061-1.3
				c-4.599-3.368-8.57-7.76-11.886-12.312c-3.316-4.554-5.709-8.971-6.947-13.795c-1.237-4.824-1.963-11.541-2.034-20.027
				c-0.085-10.119-0.052-15.013,0.137-24.37c0.116-5.769,0.414-9.921,0.811-12.691c0.397-2.769,1.389-5.448,2.923-8.105
				c1.533-2.656,3.572-4.867,6.138-6.61c2.564-1.743,5.483-2.812,8.825-2.957c4.537-0.196,8.345,1.203,11.373,4.151
				c3.027,2.948,5.08,6.675,6.152,11.026c1.071,4.352,1.769,11.061,2.009,20.504C142.191,49.928,142.237,51.872,142.323,55.801z"/>
			<path class="st0" d="M171.369,21.053c8.389,25.666,15.574,51.359,21.135,77.791c-8.1,1.793-11.963,3.598-19.635,7.156
				c-0.525-6.812-0.829-10.195-1.503-16.889c-2.618,0.906-3.921,1.383-6.531,2.319c-0.229,7.332-0.384,11.088-0.77,18.754
				c-7.693,3.659-11.997,6.543-18.879,7.208c2.492-34.204,4.887-68.407,5.473-102.705C159.232,16.443,163.394,17.721,171.369,21.053
				z M170.019,72.669c-1.882-12.322-3.787-24.641-5.868-36.932c0.074,12.788-0.099,25.565-0.219,38.352
				C166.368,73.507,167.584,73.214,170.019,72.669z"/>
			<path class="st0" d="M219.86,60.857c-5.371-2.944-8.259-4.838-13.892-7.95c-0.844-1.806-1.278-2.697-2.168-4.449
				c-1.038-2.045-1.898-3.411-2.519-4.163c-0.622-0.752-1.307-1.369-2.065-1.841c-0.823-0.512-1.256-0.518-1.319-0.02
				c-0.064,0.499,0.258,1.522,0.958,3.086c0.901,2.01,1.809,3.694,2.76,4.999c0.938,1.287,2.877,3.267,5.966,6.027
				c8.865,7.933,15.478,13.805,18.813,17.313c3.337,3.509,6.652,8.114,9.264,14.524c1.899,4.659,2.475,8.157,1.903,10.305
				s-2.591,3.775-6.133,4.404c-3.543,0.63-8.083-0.096-13.075-1.521c-5.48-1.564-10.145-3.215-14.27-5.395
				c-4.125-2.181-6.801-4.571-8.27-7.733c-1.469-3.163-2.494-7.77-3.3-13.592c-0.282-2.034-0.43-3.043-0.743-5.043
				c6.74,0.098,10.474,0.735,16.968,2.946c0.897,3.383,1.312,5.105,2.071,8.604c0.585,2.694,1.157,4.526,1.798,5.448
				c0.643,0.924,1.594,1.568,2.88,1.98c1.287,0.413,2.164,0.253,2.582-0.501c0.417-0.754,0.398-2.084-0.083-3.977
				c-1.057-4.165-2.448-7.043-3.937-8.727c-1.508-1.705-4.644-4.879-9.952-9.206c-5.327-4.342-8.657-6.995-10.363-8.621
				c-1.705-1.625-3.266-3.713-4.705-6.286c-1.441-2.572-2.582-5.745-3.543-9.365c-1.385-5.219-1.956-8.652-1.668-10.399
				c0.289-1.747,1.284-2.563,2.928-2.396c1.645,0.167,3.844,1.341,6.698,3.483c3.121,2.342,6.052,5.07,9.062,8.018
				c3.01,2.947,5.617,5.588,7.749,7.895c2.132,2.307,4.952,5.498,8.072,9.929C218.948,59.515,219.255,59.96,219.86,60.857z"/>
		</g>
	</g>
	<g>
		<g>
			<path class="st0" d="M11.758,118.083c3.175,1.77,4.761,2.578,8.046,3.549c5.302,1.566,9.09,1.211,10.833,1.934
				s2.911,2.106,3.548,4.193c0.637,2.088,0.898,4.498,0.815,7.258c-0.084,2.762-0.633,8.257-0.746,16.814
				c-0.244,10.129,0.667,20.962,2.661,30.902c1.438,7.549,2.71,12.328,3.105,14.788c0.394,2.46,0.448,4.419,0.109,5.922
				c-0.339,1.505-0.976,2.655-1.947,3.473c-0.97,0.818-2.627,1.54-4.987,2.192c-4.979,1.376-7.465,2.117-12.433,3.595
				C8.099,181.475,5.406,151.107,11.758,118.083z M19.986,137.199c-2.312,19.509-0.771,40.193,5.407,58.918
				c1.512-0.286,2.252-1.099,2.24-2.411c-0.011-1.311-0.854-4.697-2.048-10.419c-2.385-11.462-3.312-23.213-2.838-34.909
				c0.167-4.1,0.358-6.672,0.337-7.798c-0.021-1.128-0.226-1.943-0.625-2.468C22.061,137.587,21.231,137.319,19.986,137.199z"/>
			<path class="st0" d="M62.008,116.22c-2.223,29.506,0.582,57.38,8.237,85.942c-4.101,0.255-6.144,0.479-10.221,1.062
				c-1.761-5.385-2.548-8.192-3.902-13.986c-1.527,0.243-2.29,0.37-3.816,0.634c0.958,5.848,1.566,8.678,3.022,14.1
				c-4.114,0.718-6.166,1.15-10.262,2.099c-7.463-29.261-6.714-56.747,0.256-86.048C52.031,118.839,55.409,118.133,62.008,116.22z
				 M53.622,174.463c-2.039-12.258-2.718-24.742-2.142-37.153c-1.532,12.642-2.67,25.093-1.713,37.829
				C51.31,174.865,52.081,174.73,53.622,174.463z"/>
			<path class="st0" d="M81.262,108.893c-2.888,25.491-3.332,50.349-1.386,75.927c2.596-0.069,3.912-0.075,6.561,0.032
				c0.545,7.341,0.9,10.898,1.756,17.717c-6.537-0.752-9.782-0.807-16.242-0.501c-5.408-29.769-5.664-58.653-1.567-88.614
				C74.844,111.784,77.014,110.258,81.262,108.893z"/>
			<path class="st0" d="M102.389,106.939c-2.542,26.788-3.595,53.413-3.382,80.318c2.247,0.888,3.365,1.422,5.606,2.504
				c-0.022,7.615,0.009,11.309,0.145,18.4c-5.497-2.83-7.55-4.339-14.1-5.273c-3.119-32.225-2.94-64.156,0.178-96.37
				C95.537,105.812,98.311,105.867,102.389,106.939z"/>
			<path class="st0" d="M127.049,121.713c0.659,30.525,1.608,61.043,2,91.573c-4.019,1.378-5.995,1.287-9.769,0.633
				c0.029-6.114,0.044-9.303,0.08-15.886c-1.362-0.374-2.037-0.602-3.38-1.105c-0.429,6.547-0.629,9.734-0.992,15.88
				c-3.714-1.252-5.512-2.228-9.061-4.047c1.262-32.158,4.392-64.197,8.494-96.107C119.67,116.081,122.121,118.278,127.049,121.713z
				 M119.728,181.393c-0.091-14.177,0.067-28.35,0.299-42.525c-1.429,13.708-2.673,27.45-3.61,41.201
				C117.737,180.642,118.398,180.912,119.728,181.393z"/>
			<path class="st0" d="M154.244,125.254c0.564,27.74-0.948,55.338-6.07,82.652c-6.054,1.339-9.068,2.146-15.06,4.041
				c-0.082-29.331-1.445-58.65-2.603-87.952c3.589,2.204,5.373,3.142,9.068,3.943c1.508,19.629,2.729,39.299,2.447,58.998
				c1.029-14.525,1.802-29.036,2.012-43.598c0.077-6.179,0.067-9.191-0.051-15.009C147.791,128.158,149.938,127.077,154.244,125.254
				z"/>
			<path class="st0" d="M172.95,116.354c6.041,29.293,7.791,57.875,4.471,87.621c-4.129,0.207-6.19,0.369-10.302,0.816
				c0.791-5.417,1.11-8.241,1.581-14.062c-1.503,0.261-2.254,0.398-3.755,0.683c-0.897,5.811-1.416,8.614-2.564,13.96
				c-4.151,0.565-6.222,0.91-10.352,1.727c5.589-27.586,7.031-55.52,6.167-83.595C164.083,120.792,167.003,119.186,172.95,116.354z
				 M169.746,175.882c0.06-12.386-0.518-24.781-1.827-37.099c-0.186,12.711-0.665,25.333-1.88,37.99
				C167.52,176.41,168.262,176.231,169.746,175.882z"/>
			<path class="st0" d="M191.273,109.334c4.274,26.063,4.77,50.755,1.487,76.961c2.61-0.102,3.919-0.122,6.547-0.09
				c-1.244,7.368-2.03,10.936-3.882,17.765c-6.527-0.319-9.787-0.336-16.288-0.073c5.747-30.594,5.961-60.193,1.502-90.982
				C184.824,111.197,186.941,110.423,191.273,109.334z"/>
			<path class="st0" d="M212.042,108.593c5.088,26.842,5.359,51.62,0.746,78.549c2.597,0.321,3.91,0.526,6.547,0.979
				c-1.658,7.346-2.692,10.903-5.11,17.707c-6.541-0.97-9.811-1.317-16.341-1.722c7.942-32.247,8.528-63.618,2.776-96.269
				C205.164,107.56,207.868,107.841,212.042,108.593z"/>
			<path class="st0" d="M221.406,111.041c7.645,2.352,11.84,4.173,19.374,4.563c1.916,7.538,2.64,11.429,3.554,19.378
				c-3.018-0.398-4.567-0.775-7.682-1.603c0.903,7.373,1.141,11.125,1.132,18.831c2.853,0.862,4.266,1.286,7.045,1.9
				c-0.1,7.878-0.41,11.754-1.491,19.312c-2.668-0.823-4.017-1.319-6.75-2.268c-1.082,8.567-1.93,12.74-4.153,20.767
				c2.972,1.232,4.424,1.928,7.327,3.151c-2.273,7.499-3.658,11.132-6.854,18.086c-6.228-3.558-9.165-5.813-16.218-6.949
				C227.004,174.434,228.2,143.672,221.406,111.041z"/>
		</g>
	</g>
	<g>
		<g>
			<path class="st0" d="M21.593,221.636c7.539-2.289,11.314-3.447,18.893-5.406c5.984-1.546,10.704-2.04,14.092-1.732
				c3.386,0.309,6.455,1.729,9.216,4.092c2.761,2.363,5.088,6.458,7.402,11.8c1.565,3.612,2.171,6.056,1.742,7.582
				s-1.65,2.665-4.85,4.454c3.609,0.112,6.157,1.469,7.663,3.728c1.505,2.258,2.506,5.95,3.179,10.862
				c0.383,2.798,0.592,4.177,1.04,6.892c0.818,4.949,1.12,8.519,0.798,10.943c-0.322,2.423-1.231,4.209-2.773,5.521
				c-1.543,1.312-5.033,2.786-10.36,5.375c-6.128,2.979-9.158,4.892-14.698,9.032c-4.559-12.491-6.273-26.324-11.133-38.518
				C37.001,244.21,27.831,233.421,21.593,221.636z M45.812,228.097c2.99,5.95,4.645,8.78,8.228,14.083
				c0.664-0.266,1.187-0.462,1.567-0.592c1.568-0.536,2.328-1.222,2.297-2.109c-0.031-0.886-1.149-3.081-3.158-6.837
				c-1.06-1.982-1.957-3.362-2.753-4.079c-0.795-0.717-1.562-1.105-2.302-1.149S47.656,227.585,45.812,228.097z M57.628,253.242
				c1.303,8.931,2.18,13.244,4.315,21.432c1.946-1.012,3.113-1.954,3.484-2.933c0.371-0.978,0.209-2.931-0.413-5.957
				c-0.575-2.796-0.841-4.216-1.329-7.095c-0.561-3.304-1.103-5.266-1.73-5.794C61.327,252.369,59.878,252.449,57.628,253.242z"/>
			<path class="st0" d="M72.786,210.893c5.462-0.243,8.203-0.209,13.714,0.309c9.184,0.863,14.112,3.875,16.893,5.916
				s5.165,4.886,7.095,8.287c1.929,3.402,3.065,7.823,3.541,13.003c0.434,4.73,0.207,7.406-0.672,8.377
				c-0.88,0.972-3.17,0.928-6.142-0.227c2.71,2.438,4.601,4.743,5.587,6.865c0.985,2.122,1.616,3.896,1.879,5.361
				s0.45,5.278,0.635,11.125c0.241,7.643,0.399,11.311,0.777,18.239c-4.961-2.251-7.367-3.435-11.857-5.565
				c-0.872-8.95-1.212-13.758-1.653-23.829c-0.178-4.055-0.471-6.753-0.914-7.931c-0.444-1.177-1.476-2.178-3.49-2.663
				c0.548,11.026,1.143,22.005,2.492,32.97c-4.777-1.558-7.356-1.762-12.607-1.368C83.496,255.652,79.352,234.435,72.786,210.893z
				 M94.084,223.569c1.091,5.836,1.709,8.612,3.067,13.818c1.775,0.386,2.748,0.574,3.258,0.355c0.51-0.218,0.501-1.592-0.012-4.303
				c-0.256-1.353-0.38-2.039-0.622-3.43c-0.349-2.005-0.89-3.507-1.648-4.403C97.367,224.709,96.168,223.944,94.084,223.569z"/>
			<path class="st0" d="M138.133,219.448c-1.16,25.473-2.236,50.813-2.794,76.311c-5.667-1.868-8.517-2.957-14.003-5.299
				c-0.67-22.58-1.028-45.143-1.865-67.717C126.576,223.992,130.521,221.542,138.133,219.448z"/>
			<path class="st0" d="M184.666,212.986c-1.476,7.092-2.292,10.539-4.065,17.194c-4.216,0.122-6.335,0.21-10.579,0.458
				c-4.807,23.526-6.701,46.305-9.411,70.18c-5.28-0.132-8.058-0.561-13.662-1.81c1.366-22.478,2.242-44.483,5.167-66.798
				c-4.237,0.508-6.354,0.803-10.575,1.494c0.426-5.934,0.623-9.024,0.983-15.404C156.658,215.273,170.224,213.569,184.666,212.986z
				"/>
			<path class="st0" d="M211.063,261.121c-1.484,7.799-3.086,13.034-4.24,16.112c-1.156,3.08-2.906,5.881-5.189,8.593
				c-2.284,2.712-4.915,5.012-7.792,6.952c-2.879,1.942-5.866,3.396-8.883,4.274c-2.862,0.833-5.113,0.932-6.882,0.179
				c-1.77-0.754-2.904-2.386-3.581-5.123c-0.677-2.736-0.931-5.998-0.659-9.683c0.271-3.684,1.03-10.231,1.958-20.032
				c0.617-6.516,0.868-10.058,2.777-15.267c2.803-7.648,4.69-13.508,6.025-16.966c1.335-3.458,3.245-6.705,5.849-9.628
				c2.603-2.924,5.711-5.146,9.343-6.511c3.631-1.365,7.62-1.777,11.886-1.204c4.048,0.544,7.453,1.872,9.885,4.338
				c2.433,2.467,3.84,5.619,4.295,8.935c0.455,3.315,0,6.359-1.343,9.199c-1.343,2.841-4.151,7.581-9.031,13.638
				C212.237,252.952,212.074,255.809,211.063,261.121z M205.631,234.888c1.708-3.441,2.544-5.739,2.621-6.765
				s-0.469-1.606-1.614-1.702c-0.969-0.082-1.879,0.274-2.726,1.063c-0.848,0.788-2.076,3.226-3.839,7.135
				c-6.468,13.324-9.058,23.6-11.516,38.204c-0.945,5.062-1.486,8.066-1.474,9.16c0.012,1.095,0.493,1.532,1.47,1.334
				c1-0.203,1.808-0.972,2.4-2.323s1.483-4.454,2.498-9.479C196.347,257.131,198.795,247.898,205.631,234.888z"/>
		</g>
	</g>
</g>
</svg>
